<svg xmlns="http://www.w3.org/2000/svg" viewBox="0 0 144.71 278.78"><defs><style>.cls-1{fill:#fff;}</style></defs><title>Face</title><g id="Layer_2" data-name="Layer 2"><g id="Layer_1-2" data-name="Layer 1"><path d="M9.85,129.07v-3.34a5.7,5.7,0,0,0,.38-.88c1.13-4.55,5-7,9-5.77a7.62,7.62,0,0,0,1.23.14c0-.45-.07-.77-.09-1.08-1.11-11.93.74-23.38,6.87-33.7,10-16.82,24.48-27.33,44.36-29.23,7.6-.73,15.23-.3,22.51,2.43,18.15,6.8,38.71,27.06,37.79,56-.06,1.86-.21,3.72-.32,5.65.57-.09,1-.13,1.33-.2,4.13-.79,7.51,1.11,8.55,5.16a14,14,0,0,1,.2,5.58c-.72,4.42-3.22,8.11-5.41,11.9a52.75,52.75,0,0,0-5.54,13.85c-.84,3.37-.77,6.4,1.09,9.53a111.91,111.91,0,0,1,5.89,11.74A25.46,25.46,0,0,1,140,190.93a73,73,0,0,1-6.39,20.22c-1.75,3.81-4.94,6.38-7.8,9.23a13,13,0,0,0-3.72,6.72,44.73,44.73,0,0,1-2.57,8.06c-1.85,4.41-4.47,8.33-8.59,11-1.59,1-3.31,2-5,0C98.61,260,87.93,270.43,74.59,278.78c1-7.42,2-14.38,2.9-21.34a9.55,9.55,0,0,0-2.7,5.7c-.39,2.16-.63,4.35-.93,6.47a1.22,1.22,0,0,1-.23.1,4.76,4.76,0,0,1-.66-.09c-11.08-2.6-18.6-9.33-22.64-19.87a19.4,19.4,0,0,0-4.39-6.69c-6.67-7-13.23-14.08-19.84-21.12-5.87-6.24-9.41-13.7-12.12-21.77-3.24-9.63-2.75-18.72,2.19-27.62,1.81-3.24,3.49-6.56,5-9.93a7.11,7.11,0,0,0,.57-3.67,42.86,42.86,0,0,0-4.54-14.36C14.57,139.52,11.29,134.73,9.85,129.07ZM81.46,57.65a58.21,58.21,0,0,0-15.59.9C51.08,61.6,39.82,70.05,31.52,82.27,22.7,95.27,20.82,109.74,24,125c1.25,6,2.14,12.12,2.88,18.23.42,3.51.18,7.1.3,10.65s.75,6.69,3,9.51c1.89,2.39,3.56,5,5.4,7.4a14.52,14.52,0,0,0,6.81,5.41,14.91,14.91,0,0,1,1.83.92l-.1.43H39.43l-.21.56,9.07,6.39c.86.61,1.27,0,1.75-.58a31.58,31.58,0,0,1,10.81-8.73,3.75,3.75,0,0,0,.6-.5c-3.55-.85-6.49-2.14-7.28-5.95-.73-3.55.71-6.48,2.53-9.46l2,1.16a49.08,49.08,0,0,0-2,5.41,4.42,4.42,0,0,0,3.15,5.62c1.79.58,3.67.85,5.51,1.29,2.27.54,4.63,1.3,5.57,3.54,1.13,2.64,2.72,3.51,5.51,3.25,1.27-.12,1.91-.36,2.34-1.48a8.4,8.4,0,0,1,6.73-5.33c1.2-.24,2.4-.46,3.59-.72,4.73-1,6.21-3.86,4.33-8.36-.43-1-1-2.06-1.51-3.16l2-1.16c2.41,3.24,3.4,7.12,2.48,10-1.5,4.67-5.77,5-9.64,5.79.1.23.12.38.19.42A28.72,28.72,0,0,1,97,184a2.12,2.12,0,0,0,1.79.53c3.3-.78,6.56-1.68,9.83-2.57a17.23,17.23,0,0,0,1.69-.69,3.54,3.54,0,0,1,.78-4.54c1.94-2,4-3.89,5.91-5.87,3.89-4,6.83-8.52,7.47-14.18a67.2,67.2,0,0,0,.44-9,78.85,78.85,0,0,1,2.27-19.3c1.54-6.8,2.63-13.65,2-20.65-1.74-19.58-12.1-33.66-28.2-44.05M89.59,205.26a17,17,0,0,0,1.32-1.2c2.56-3,1.88-8.76-1.4-11a16.25,16.25,0,0,0-4.18-2,35.3,35.3,0,0,0-14-1.16,21.64,21.64,0,0,0-9.52,2.7,8.25,8.25,0,0,0-2.54,11A12.25,12.25,0,0,0,60.48,205c1.83-1.88,3.49-3.67,5.26-5.34,1.28-1.21,2.43-2.36,1.93-4.33-.06-.22.14-.5.2-.71H83.76c.22,1.27.55,2.46-1.33,2.78ZM23.74,155.08a4.74,4.74,0,0,0,.42-.92,70.44,70.44,0,0,0-.44-16.92,10.88,10.88,0,0,0-1.07-2.36l-1.09,5-.46-.09c.15-1.53.39-3.07.41-4.6a4.47,4.47,0,0,0-.61-2.36,41,41,0,0,0-2.82-3.49l.34-.31,4.13,3.88a13.35,13.35,0,0,0,0-2c-.38-2-1-4-1.2-6a3.43,3.43,0,0,0-3.06-3.36,4.14,4.14,0,0,0-4.62,1.85,6.17,6.17,0,0,0-.94,5.71,83.41,83.41,0,0,0,4.52,10.12A63.32,63.32,0,0,1,23,152.24C23.21,153.06,23.42,153.89,23.74,155.08Zm110.09-26,.33.39c-.82,1-1.6,2-2.46,2.9a3.17,3.17,0,0,0-.91,3.3,23,23,0,0,1,.39,4l-.5.07-.91-4.32H129c-2.37,6.33-1.29,12.91-1,19.46,1.61-7.1,5.32-13.18,8.75-19.4a26.6,26.6,0,0,0,2.34-5.84,7.19,7.19,0,0,0-1-6.52,4.22,4.22,0,0,0-4.57-1.62,3.39,3.39,0,0,0-2.95,3.29c-.24,1.92-.81,3.8-1.1,5.71a9,9,0,0,0,.35,2.37ZM46,238.88c-.29-3.61-1-7-.71-10.28s1.37-6.56,2.12-9.91c-3.56,3.5-4.72,7.88-4.47,13.16l-11.38-10.7-.54.54C35.34,227.86,40.63,233.23,46,238.88ZM17.25,196.8l.71-.16a4.2,4.2,0,0,0,.05-.79c-.84-7.75.06-15.13,4.16-22a31.48,31.48,0,0,0,2.41-6,8.46,8.46,0,0,0,.2-2.27c-1.86,2.68-3.29,5.44-5,8A24.85,24.85,0,0,0,16,190.46C16.18,192.6,16.81,194.69,17.25,196.8Z"/><path class="cls-1" d="M106.06,139.46a7.18,7.18,0,0,0,1.73-7.55,1.54,1.54,0,0,1,.59-1.27,1.7,1.7,0,0,1,1.42-.24c1.34.63,2.62,1.42,4.26,2.34l-7.53,7.13Z"/><path class="cls-1" d="M99,141.14A15,15,0,0,1,89.39,137c1.74,0,3.48,0,5.22,0a1.34,1.34,0,0,1,.8.44C96.61,138.67,97.78,139.92,99,141.14Z"/><path d="M70.1,143.9c3.21-1.92,4.22-5,4.49-8.41,0-.26.44-.48.68-.71.21.26.58.53.59.8q.06,6.31,0,12.65c0,.26-.38.52-.58.78-.21-.31-.6-.62-.61-.94-.06-2,0-4.1,0-6.16v-2.42C73.27,141.49,72.42,143.47,70.1,143.9Z"/><path d="M82.07,144.82c-3-.49-5.43-4.95-4.71-8.69C77.8,139.63,78.59,143,82.07,144.82Z"/><path d="M74.35,125.9l.93-2.12a8.28,8.28,0,0,1,.57,2.11,7.82,7.82,0,0,1-.57,2.1Z"/><path class="cls-1" d="M46.24,127.85c-1.2-1-2-1.6-2.82-2.3a10,10,0,0,0-7.16-2.65c-2,0-4,.17-6,.22-.78,0-1.6.08-1.44,1.07.07.43.72,1,1.21,1.11a18.48,18.48,0,0,1,7.59,4.24l-6.48,3.72c2.23,2.12,4.05,4.32,6.3,5.87"/><path d="M49.28,129.44c7.23,3.09,14.49,2.85,22.15.53a16.5,16.5,0,0,1-5.72,5.86,21.58,21.58,0,0,0-3.57,2.5c-4.53,4-9.65,6.18-15.7,5.52a12.93,12.93,0,0,1-4.51-1.22,45.63,45.63,0,0,1-4.48-3.5c-2.25-1.55-4.07-3.75-6.3-5.87l6.48-3.72A18.48,18.48,0,0,0,30,125.3c-.49-.16-1.14-.68-1.21-1.11-.16-1,.66-1,1.44-1.07,2-.05,4-.18,6-.22a10,10,0,0,1,7.16,2.65c.78.7,1.62,1.32,2.82,2.3"/><path d="M34.42,133.6,42,140.68l.44-.36c-2.29-2.45-2.64-5.25-1.38-8.51-.81-.26-1.62-.84-2.13-.64A44,44,0,0,0,34.42,133.6Z"/><path d="M59.07,137.82c-1.66,0-3.32,0-5,0a1.29,1.29,0,0,0-.86.3c-1.25,1.27-2.46,2.59-3.67,3.87A15.12,15.12,0,0,0,59.07,137.82Z"/><path class="cls-1" d="M34.42,133.6a44,44,0,0,1,4.51-2.43c.51-.2,1.32.38,2.13.64-1.26,3.26-.91,6.06,1.38,8.51l-.44.36Z"/><path class="cls-1" d="M59.07,137.82A15.12,15.12,0,0,1,49.56,142c1.21-1.28,2.42-2.6,3.67-3.87a1.29,1.29,0,0,1,.86-.3C55.75,137.8,57.41,137.82,59.07,137.82Z"/><path class="cls-1" d="M113.63,139.13c2.25-1.55,4.06-3.75,6.3-5.87l-6.48-3.72A18.35,18.35,0,0,1,121,125.3c.49-.16,1.14-.68,1.21-1.11.16-1-.66-1-1.44-1.07-2-.05-4-.18-6-.22a10,10,0,0,0-7.16,2.65c-.78.7-1.63,1.32-2.82,2.3"/><path d="M104.84,127.85c1.19-1,2-1.6,2.82-2.3a10,10,0,0,1,7.16-2.65c2,0,4,.17,6,.22.78,0,1.6.08,1.44,1.07-.07.43-.72,1-1.21,1.11a18.35,18.35,0,0,0-7.59,4.24l6.48,3.72c-2.24,2.12-4.05,4.32-6.3,5.87a46.18,46.18,0,0,1-4.49,3.5,12.89,12.89,0,0,1-4.5,1.22c-6,.66-11.17-1.53-15.7-5.52a21.58,21.58,0,0,0-3.57-2.5A16.5,16.5,0,0,1,79.65,130c7.65,2.32,14.92,2.56,22.15-.53"/><path d="M112.15,131.17c-.51-.2-1.32.38-2.13.64,1.26,3.26.9,6.06-1.38,8.51l.44.36,7.57-7.08A42.91,42.91,0,0,0,112.15,131.17Z"/><path d="M101.51,142c-1.2-1.28-2.41-2.6-3.66-3.87a1.3,1.3,0,0,0-.87-.3c-1.65,0-3.31,0-5,0A15.12,15.12,0,0,0,101.51,142Z"/><path class="cls-1" d="M116.65,133.6a42.91,42.91,0,0,0-4.5-2.43c-.51-.2-1.32.38-2.13.64,1.26,3.26.9,6.06-1.38,8.51l.44.36Z"/><path class="cls-1" d="M92,137.82a15.12,15.12,0,0,0,9.5,4.18c-1.2-1.28-2.41-2.6-3.66-3.87a1.3,1.3,0,0,0-.87-.3C95.33,137.8,93.67,137.82,92,137.82Z"/><path d="M109.15,70l-8.84-58a14.08,14.08,0,0,0-16-11.8L31.39,8.21a14.08,14.08,0,0,0-11.79,16l8.89,58.41C10.36,89.05-.95,96.8.06,103.47c1.66,10.85,35.36,14.72,75.29,8.64s71-19.8,69.29-30.66C143.59,74.54,129.53,70.46,109.15,70Z"/></g></g></svg>
